# xmcd
#
# Track frame offsets: 
#        150
#        14300
#        32285
#        46423
#        62725
#        79944
#        94050
#        108660
#        123465
#        139610
#        153242
#        167700
#
# Disc length: 2514 seconds
#
# Revision: 1
# Processed by: cddbd v1.5.2PL0 Copyright (c) Steve Scherf et al.
# Submitted via: ExactAudioCopy v0.99pb4
#
DISCID=9309d00c
DTITLE=Jaydee Bixby - Cowboys and Cadillacs
DYEAR=2008
DGENRE=Country
TTITLE0=Old-Fashioned Girl
TTITLE1=Cowboys and Cadillacs
TTITLE2=Love Is
TTITLE3=Broken Windows
TTITLE4=Boys in the Band
TTITLE5=Somewhere Tonight
TTITLE6=My So-Called Life
TTITLE7=Slow Me Down
TTITLE8=Hard to Love You
TTITLE9=I'm Ready Whenever You Are
TTITLE10=Run Away
TTITLE11=Break It to Them Gently
EXTD=
EXTT0=
EXTT1=
EXTT2=
EXTT3=
EXTT4=
EXTT5=
EXTT6=
EXTT7=
EXTT8=
EXTT9=
EXTT10=
EXTT11=
PLAYORDER=
